<svg xmlns="http://www.w3.org/2000/svg" width="24" height="24" viewBox="0 0 24 24">
  <path fill="#E64B4B" d="M12 20c4 0 7-3.1 7-7 0-4.5-3.5-8-7-8s-7 3.5-7 8c0 3.9 3 7 7 7z"/>
  <path fill="#FFFFFF" opacity="0.65" d="M9 10.5c.6 0 1-.4 1-1S9.6 8.5 9 8.5s-1 .4-1 1 .4 1 1 1zm6 0c.6 0 1-.4 1-1s-.4-1-1-1-1 .4-1 1 .4 1 1 1z"/>
  <path fill="#FFFFFF" opacity="0.55" d="M8.8 15.4c1.2 1 2.7 1.6 3.2 1.6.5 0 2-.6 3.2-1.6.3-.2.3-.7.1-1-.2-.3-.7-.3-1-.1-1 .8-2.1 1.3-2.3 1.3-.2 0-1.3-.5-2.3-1.3-.3-.2-.8-.2-1 .1-.2.3-.2.8.1 1z"/>
</svg>
