<svg width="41" height="42" viewBox="0 0 41 42" fill="none" xmlns="http://www.w3.org/2000/svg">
<path d="M40.9999 21.2688C40.9999 19.7489 40.863 18.2945 40.6088 16.896H20.9363V24.9083L32.2661 24.9107C31.8065 27.5766 30.3277 29.8492 28.0617 31.3642V36.5625H34.8058C38.7437 32.9424 40.9999 27.5912 40.9999 21.2688Z" fill="#4285F4"/>
<path d="M28.0641 31.3649C26.1868 32.6226 23.7693 33.3582 20.9411 33.3582C15.4779 33.3582 10.8433 29.7017 9.18357 24.7729H2.22681V30.1339C5.67341 36.9274 12.7573 41.589 20.9411 41.589C26.5975 41.589 31.3494 39.7414 34.8082 36.5607L28.0641 31.3649Z" fill="#34A853"/>
<path d="M8.52851 20.7955C8.52851 19.4115 8.76073 18.0737 9.18361 16.816V11.4551H2.22685C0.80176 14.2642 0 17.4352 0 20.7955C0 24.1558 0.804204 27.3267 2.22685 30.1358L9.18361 24.7749C8.76073 23.5172 8.52851 22.1794 8.52851 20.7955Z" fill="#FABB05"/>
<path d="M20.9411 8.2308C24.0284 8.2308 26.793 9.28696 28.9759 11.3507L34.9524 5.41922C31.3225 2.06134 26.5901 0 20.9411 0C12.7597 0 5.67341 4.66169 2.22681 11.4551L9.18357 16.8161C10.8433 11.8873 15.4779 8.2308 20.9411 8.2308Z" fill="#E94235"/>
</svg>
