<svg width="22" height="22" viewBox="0 0 22 22" fill="none" xmlns="http://www.w3.org/2000/svg">
<path d="M11 0C8.82441 0 6.69767 0.645139 4.88873 1.85383C3.07979 3.06253 1.66989 4.78049 0.83733 6.79048C0.00476612 8.80047 -0.213071 11.0122 0.211367 13.146C0.635804 15.2798 1.68345 17.2398 3.22183 18.7782C4.76021 20.3165 6.72022 21.3642 8.85401 21.7886C10.9878 22.2131 13.1995 21.9952 15.2095 21.1627C17.2195 20.3301 18.9375 18.9202 20.1462 17.1113C21.3549 15.3023 22 13.1756 22 11C22 9.55546 21.7155 8.12506 21.1627 6.79048C20.6099 5.4559 19.7996 4.24327 18.7782 3.22182C17.7567 2.20038 16.5441 1.39013 15.2095 0.837325C13.8749 0.284523 12.4445 0 11 0V0ZM12.1 19.723V18.7C12.1 18.4083 11.9841 18.1285 11.7778 17.9222C11.5715 17.7159 11.2917 17.6 11 17.6C10.7083 17.6 10.4285 17.7159 10.2222 17.9222C10.0159 18.1285 9.9 18.4083 9.9 18.7V19.723C7.96398 19.4775 6.16449 18.5954 4.78455 17.2154C3.40461 15.8355 2.52252 14.036 2.277 12.1H3.3C3.59174 12.1 3.87153 11.9841 4.07782 11.7778C4.28411 11.5715 4.4 11.2917 4.4 11C4.4 10.7083 4.28411 10.4285 4.07782 10.2222C3.87153 10.0159 3.59174 9.9 3.3 9.9H2.277C2.52252 7.96397 3.40461 6.16448 4.78455 4.78454C6.16449 3.4046 7.96398 2.52251 9.9 2.277V3.3C9.9 3.59174 10.0159 3.87153 10.2222 4.07782C10.4285 4.28411 10.7083 4.4 11 4.4C11.2917 4.4 11.5715 4.28411 11.7778 4.07782C11.9841 3.87153 12.1 3.59174 12.1 3.3V2.277C14.036 2.52251 15.8355 3.4046 17.2155 4.78454C18.5954 6.16448 19.4775 7.96397 19.723 9.9H18.7C18.4083 9.9 18.1285 10.0159 17.9222 10.2222C17.7159 10.4285 17.6 10.7083 17.6 11C17.6 11.2917 17.7159 11.5715 17.9222 11.7778C18.1285 11.9841 18.4083 12.1 18.7 12.1H19.723C19.4775 14.036 18.5954 15.8355 17.2155 17.2154C15.8355 18.5954 14.036 19.4775 12.1 19.723ZM14.454 6.105L8.954 8.437C8.69761 8.54809 8.4931 8.7526 8.382 9.009L6.05 14.509C5.96337 14.7107 5.93907 14.9337 5.98024 15.1494C6.02141 15.365 6.12615 15.5634 6.281 15.719C6.4841 15.9263 6.76086 16.0449 7.051 16.049C7.20321 16.0491 7.35353 16.0153 7.491 15.95L12.991 13.618C13.2474 13.5069 13.4519 13.3024 13.563 13.046L15.895 7.546C15.98 7.34443 16.003 7.1221 15.961 6.9074C15.919 6.69271 15.814 6.49542 15.6593 6.34073C15.5046 6.18605 15.3073 6.081 15.0926 6.03901C14.8779 5.99701 14.6556 6.01999 14.454 6.105V6.105ZM11.715 11.715L9.207 12.815L10.307 10.307L12.815 9.207L11.715 11.715Z" fill="black"/>
</svg>
