<svg width="22" height="22" viewBox="0 0 22 22" fill="none" xmlns="http://www.w3.org/2000/svg">
<path d="M11 0C12.4445 0 13.8754 0.28413 15.21 0.836914C16.5445 1.38968 17.7569 2.20032 18.7783 3.22168C19.7997 4.24303 20.6103 5.4556 21.1631 6.79004C21.7159 8.12462 22 9.55546 22 11C22 13.1756 21.3552 15.3024 20.1465 17.1113C18.9378 18.9202 17.2199 20.3305 15.21 21.1631C13.2001 21.9956 10.9882 22.2134 8.85449 21.7891C6.72085 21.3647 4.76099 20.3165 3.22266 18.7783C1.68428 17.2399 0.636351 15.2793 0.211914 13.1455C-0.21241 11.0118 0.00538204 8.79989 0.837891 6.79004C1.67046 4.7803 3.07993 3.06212 4.88867 1.85352C6.69752 0.644885 8.82453 6.8846e-05 11 0ZM14.3682 2.87012C12.7602 2.20407 10.9902 2.02959 9.2832 2.36914C7.57631 2.70874 6.00796 3.54673 4.77734 4.77734C3.54674 6.00802 2.70867 7.57625 2.36914 9.2832C2.02963 10.9901 2.20421 12.7593 2.87012 14.3672C3.53617 15.9752 4.66418 17.3504 6.11133 18.3174C7.55834 19.2842 9.25973 19.7997 11 19.7998C13.3338 19.7998 15.5724 18.8729 17.2227 17.2227C18.873 15.5723 19.8008 13.3339 19.8008 11C19.8008 9.25964 19.2842 7.55842 18.3174 6.11133C17.3505 4.66426 15.976 3.53618 14.3682 2.87012ZM14.3008 12.0996C14.5923 12.0997 14.872 12.2158 15.0781 12.4219C15.2844 12.6282 15.4004 12.9085 15.4004 13.2002C15.4003 14.3671 14.9364 15.4864 14.1113 16.3115C13.2862 17.1365 12.1668 17.5996 11 17.5996C9.83317 17.5995 8.71375 17.1366 7.88867 16.3115C7.0636 15.4864 6.60064 14.367 6.60059 13.2002C6.60059 12.9085 6.71656 12.6282 6.92285 12.4219C7.12908 12.2158 7.40866 12.0996 7.7002 12.0996H14.3008ZM9.09766 14.2998C9.2905 14.6338 9.56748 14.9114 9.90137 15.1045C10.2353 15.2975 10.6143 15.3999 11 15.4004C11.3857 15.4 11.7647 15.2975 12.0986 15.1045C12.4326 14.9114 12.7104 14.6339 12.9033 14.2998H9.09766ZM7.5 7C8.32843 7 9 7.67157 9 8.5C9 9.32843 8.32843 10 7.5 10C6.67173 9.99981 6 9.32831 6 8.5C6 7.67169 6.67173 7.00019 7.5 7ZM14.5 7C15.3284 7 16 7.67157 16 8.5C16 9.32843 15.3284 10 14.5 10C13.6717 9.99981 13 9.32831 13 8.5C13 7.67169 13.6717 7.00019 14.5 7Z" fill="black"/>
</svg>
