<svg width="22" height="22" viewBox="0 0 22 22" fill="none" xmlns="http://www.w3.org/2000/svg">
<path d="M10.9844 0C12.4269 0 13.8558 0.284137 15.1885 0.836914C16.5211 1.38969 17.732 2.20033 18.752 3.22168C20.8119 5.28448 21.9687 8.0828 21.9688 11C21.9782 13.5397 21.1 16.0025 19.4863 17.9619L21.6836 20.1621C21.836 20.3168 21.9394 20.5132 21.9805 20.7266C22.0215 20.9399 21.9982 21.161 21.9141 21.3613C21.8228 21.5591 21.675 21.7253 21.4893 21.8389C21.3035 21.9525 21.0876 22.0082 20.8701 21.999H10.9844C8.07127 21.999 5.27771 20.84 3.21777 18.7773C1.15789 16.7146 0.000128878 13.9171 0 11C0 8.08275 1.15778 5.28449 3.21777 3.22168C5.27771 1.15906 8.07127 3.80922e-05 10.9844 0ZM13.5479 2.58008C11.6028 1.98788 9.51253 2.0894 7.63379 2.86719C5.75512 3.64496 4.20372 5.05109 3.24414 6.8457C2.28456 8.64039 1.97595 10.7131 2.37109 12.71C2.76625 14.7069 3.84061 16.5052 5.41113 17.7979C6.98163 19.0905 8.95145 19.7972 10.9844 19.7988H18.2236L17.2021 18.7764C17.0984 18.6746 17.0155 18.5529 16.959 18.4189C16.9024 18.2849 16.8727 18.1406 16.8721 17.9951C16.8762 17.705 16.9952 17.4287 17.2021 17.2256C18.6405 15.7869 19.5359 13.893 19.7363 11.8672C19.9368 9.84136 19.4292 7.80859 18.3008 6.11523C17.1724 4.42193 15.4929 3.17226 13.5479 2.58008ZM10.4307 12.0498L8.31055 15.2773H6.18945L7.55078 12.0498H6V7.99902H10.4307V12.0498ZM16 12.0498L13.8799 15.2773H11.7598L13.1201 12.0498H11.5693V7.99902H16V12.0498Z" fill="black"/>
</svg>
